<?xml version="1.0" standalone="no"?>
<!DOCTYPE svg PUBLIC "-//W3C//DTD SVG 20010904//EN"
 "http://www.w3.org/TR/2001/REC-SVG-20010904/DTD/svg10.dtd">
<svg version="1.0" xmlns="http://www.w3.org/2000/svg"
 width="1024.000000pt" height="1024.000000pt" viewBox="0 0 1024.000000 1024.000000"
 preserveAspectRatio="xMidYMid meet">
<metadata>
Created by potrace 1.16, written by Peter Selinger 2001-2019
</metadata>
<g transform="translate(0.000000,1024.000000) scale(0.100000,-0.100000)"
fill="#000000" stroke="none">
<path d="M0 5120 l0 -5120 5120 0 5120 0 0 5120 0 5120 -5120 0 -5120 0 0
-5120z m4274 3599 c423 0 777 -4 785 -7 9 -4 -171 -9 -399 -12 -228 -3 268 -6
1102 -7 905 -1 1518 1 1520 7 5 15 184 -25 305 -68 271 -96 568 -323 646 -495
15 -31 31 -57 36 -57 6 0 15 -18 21 -40 6 -21 15 -42 20 -45 5 -3 6 -13 3 -21
-3 -9 -1 -19 4 -23 16 -10 97 -197 132 -302 17 -52 41 -140 53 -195 22 -98 22
-114 27 -1359 3 -693 6 -1631 6 -2085 l0 -825 -23 -110 c-47 -221 -101 -353
-215 -526 -168 -254 -445 -480 -722 -587 -112 -43 -294 -89 -395 -101 -51 -6
-887 -11 -2095 -13 -1647 -2 -2022 0 -2078 11 -37 7 -71 11 -74 8 -3 -3 12 -9
33 -12 22 -4 46 -9 54 -12 8 -3 28 -6 44 -7 17 0 31 -7 33 -16 4 -13 3 -13 -6
0 -8 11 -11 12 -11 2 0 -7 -5 -10 -11 -7 -6 4 -24 8 -41 9 -25 2 -28 0 -14 -9
19 -14 22 -30 4 -19 -7 5 -42 9 -78 11 -65 2 -223 10 -248 12 -7 1 -10 6 -6
12 4 8 -1 9 -16 4 -16 -5 -20 -4 -15 5 4 7 2 10 -6 9 -26 -5 -70 11 -63 23 4
7 3 8 -5 4 -27 -17 -241 108 -388 227 -211 169 -394 463 -468 749 -44 167 -47
212 -49 601 -1 207 2 377 6 377 5 0 5 12 1 27 -7 31 -11 104 -5 116 9 18 9
149 1 136 -6 -10 -9 -6 -9 13 0 15 3 29 8 32 4 2 7 75 6 163 -1 158 3 194 17
157 7 -17 8 -18 8 -1 1 10 -5 24 -12 31 -16 17 -14 199 3 204 5 2 9 28 8 60
l-1 57 -7 -55 c-8 -64 -13 -36 -13 78 0 39 -4 72 -9 72 -4 0 -8 7 -8 15 0 8 3
15 8 15 8 0 8 170 -1 238 -3 27 -1 40 5 36 5 -4 5 3 -2 15 -8 16 -8 26 -1 35
6 7 8 16 4 20 -11 10 -12 66 -2 72 5 2 4 15 -1 28 -5 13 -6 26 -3 30 7 7 5
223 -3 259 -4 19 -2 27 8 27 9 0 9 3 2 8 -7 5 -11 67 -11 187 0 99 -1 218 -1
265 -1 47 -1 126 -1 175 0 50 0 268 -1 485 -1 522 17 659 126 935 192 492 560
815 1054 926 98 23 430 41 585 33 39 -2 416 -4 839 -5z"/>
<path d="M5250 8610 c-247 -4 -268 -6 -130 -8 91 -2 174 -6 185 -8 11 -3 25
-6 32 -6 7 -1 10 -5 7 -9 -2 -4 4 -10 13 -12 10 -3 -5 -5 -33 -6 -37 -1 -51
-5 -51 -16 0 -8 5 -11 10 -8 6 4 8 -5 5 -21 -3 -14 -1 -29 5 -33 6 -3 7 -1 3
5 -4 7 -1 12 6 12 7 0 18 -12 25 -26 10 -23 10 -24 -4 -13 -13 11 -18 10 -30
-6 -13 -19 -11 -20 54 -26 37 -3 61 -6 53 -7 -8 -1 -384 -5 -835 -8 -451 -4
-822 -8 -824 -10 -2 -2 598 -4 1335 -4 1487 0 1477 0 1742 -65 250 -63 430
-142 647 -286 111 -74 167 -119 271 -223 183 -183 310 -364 405 -576 116 -261
166 -473 176 -755 7 -199 -2 -311 -25 -318 -9 -3 -25 -8 -34 -12 -12 -5 -18
-1 -21 17 -2 13 -2 0 1 -28 18 -218 -161 -437 -390 -476 -53 -10 -76 -9 -129
4 -35 9 -65 15 -67 13 -2 -2 25 -14 59 -26 141 -52 282 -173 338 -292 54 -116
63 -207 31 -331 -61 -239 -261 -417 -575 -512 -80 -24 -107 -27 -240 -28 -161
-1 -143 -13 25 -17 82 -2 87 -3 40 -8 -84 -9 -44 -23 72 -26 54 -1 101 -5 105
-8 3 -3 12 1 21 9 14 14 16 14 27 -6 14 -27 8 -70 -11 -70 -16 0 -33 -30 -27
-47 3 -8 -4 -13 -19 -14 -13 0 3 -8 36 -19 90 -29 146 -92 146 -165 0 -30 3
-35 23 -35 35 -1 101 -35 125 -65 32 -40 37 -88 17 -141 -21 -56 -71 -91 -144
-103 -28 -4 -53 -10 -54 -12 -2 -2 -11 -25 -21 -51 -36 -97 -128 -171 -254
-203 -89 -23 -199 3 -252 60 -22 24 -23 24 -54 7 -48 -26 -189 -23 -240 4
l-40 21 -34 -20 c-51 -30 -165 -35 -215 -9 -22 12 -36 15 -34 9 12 -38 175
-49 245 -17 41 19 43 19 85 0 23 -11 53 -20 67 -20 18 0 21 -3 12 -9 -8 -5 7
-6 35 -4 37 4 54 1 65 -11 9 -9 29 -16 45 -16 15 0 37 -7 47 -15 11 -8 39 -15
63 -15 24 0 60 -7 81 -15 59 -25 109 -21 187 16 39 18 86 46 106 61 20 16 43
30 50 31 23 4 69 49 69 68 0 9 7 19 15 23 8 3 15 13 15 21 0 9 4 13 10 10 5
-3 20 0 32 7 13 7 29 11 37 9 13 -2 51 31 51 46 0 5 9 16 20 26 11 9 20 23 20
31 0 8 3 23 7 33 6 16 5 16 -10 4 -16 -13 -16 -12 -2 15 19 38 19 107 -1 145
-8 17 -13 36 -11 42 2 6 12 -10 22 -36 13 -34 16 -62 12 -102 -3 -31 -2 -55 4
-55 5 0 9 7 9 16 0 8 4 13 9 9 13 -7 34 60 26 85 -5 16 -2 20 17 22 55 3 134
-5 140 -16 6 -8 8 -8 8 1 0 6 -5 15 -10 18 -12 8 8 40 39 61 17 12 24 12 41 2
11 -7 18 -20 15 -28 -3 -10 -1 -10 9 3 16 21 26 22 26 2 0 -8 5 -15 11 -15 5
0 7 5 4 10 -4 6 0 22 9 35 9 14 11 25 5 27 -17 6 1 38 21 38 10 0 21 6 23 13
11 25 26 -18 24 -66 -2 -37 2 -48 15 -53 25 -8 23 -50 -8 -202 -113 -551 -447
-1042 -905 -1330 -100 -63 -321 -167 -443 -207 -60 -20 -172 -51 -250 -68
l-141 -31 -1365 -4 c-1205 -2 -1380 -1 -1490 13 -105 14 -232 39 -350 71 -14
4 -23 4 -19 1 11 -13 202 -58 331 -79 121 -19 191 -21 758 -27 450 -5 535 -8
303 -9 -177 -1 -329 -5 -337 -8 -12 -5 -14 -10 -6 -19 16 -19 -5 -28 -23 -10
-13 13 -16 13 -21 -1 -3 -8 -2 -12 4 -9 6 3 10 1 10 -4 0 -15 -12 -14 -39 5
-22 16 -23 16 -12 -3 10 -20 6 -33 -11 -33 -5 0 -6 6 -2 12 6 10 4 10 -8 0
-16 -12 -56 -11 -79 4 -8 5 -9 3 -4 -6 6 -10 4 -12 -8 -7 -10 3 -17 2 -17 -3
0 -6 -6 -9 -12 -8 -7 2 -12 -3 -10 -10 1 -8 -2 -11 -8 -7 -5 3 -10 1 -10 -6 0
-10 -3 -10 -11 -2 -8 8 -20 8 -34 3 -13 -5 -26 -6 -30 -2 -3 3 -3 -2 1 -13 5
-16 4 -17 -5 -9 -9 8 -24 9 -49 2 -20 -5 -50 -11 -67 -12 -16 -2 -29 -7 -28
-12 1 -6 -16 -9 -37 -8 -37 1 -49 -11 -26 -27 12 -9 623 -13 2046 -14 l1195 0
124 22 c249 46 452 134 651 284 338 254 528 601 570 1037 13 135 13 3759 0
3922 -4 63 -16 151 -25 195 -34 164 -130 412 -164 423 -8 3 -11 0 -7 -7 4 -6
2 -11 -3 -11 -6 0 -11 -9 -11 -20 0 -12 -10 -24 -24 -30 -13 -5 -27 -14 -31
-20 -3 -5 -12 -7 -18 -3 -7 4 -6 -1 2 -11 12 -14 12 -17 1 -14 -8 2 -19 -7
-25 -20 -6 -14 -15 -20 -25 -16 -19 8 -37 12 -27 7 4 -3 7 -10 7 -16 0 -5 -3
-7 -7 -4 -3 4 -11 0 -18 -9 -10 -15 -13 -14 -30 2 -16 16 -18 17 -13 2 5 -13
0 -18 -22 -23 -33 -7 -55 -29 -45 -45 16 -26 -6 -5 -38 36 -20 26 -34 51 -30
57 3 5 2 7 -4 4 -5 -3 -38 27 -73 66 -36 40 -99 103 -142 141 -42 38 -75 73
-72 77 2 4 -1 11 -7 15 -8 4 -9 3 -5 -4 11 -18 -3 -14 -36 9 -16 12 -27 24
-24 27 3 2 12 -1 21 -8 13 -11 15 -10 10 1 -3 8 -15 19 -28 25 -12 5 -21 16
-19 23 1 7 -2 9 -8 6 -8 -5 -6 -13 6 -26 27 -29 12 -23 -68 29 -40 27 -92 59
-115 72 -24 13 -41 26 -38 28 5 5 143 -76 151 -89 9 -16 54 -10 54 7 0 8 -4
13 -9 10 -5 -3 -11 1 -15 9 -3 10 1 15 12 15 14 1 14 2 -3 12 -11 6 -22 14
-25 17 -3 3 -10 7 -17 8 -9 2 -10 -4 -3 -22 11 -29 -1 -33 -24 -9 -17 17 -21
28 -7 20 21 -13 18 35 -4 58 -14 16 -22 35 -21 50 2 14 -4 33 -13 43 -10 10
-16 30 -14 48 2 28 2 29 -6 5 -6 -17 -9 -20 -10 -7 -1 9 -6 17 -12 17 -8 0 -8
5 1 15 10 12 9 16 -4 21 -15 6 -15 7 0 19 13 9 14 14 4 20 -7 4 -15 3 -19 -3
-3 -6 -12 1 -19 16 -8 17 -8 22 -1 15 9 -9 15 -8 26 3 8 8 19 11 25 8 7 -4 8
-2 4 5 -4 6 -13 8 -19 4 -7 -4 -5 1 3 12 14 17 13 17 -10 10 -22 -7 -23 -6
-11 9 11 14 11 16 -2 16 -8 0 -18 6 -20 13 -4 9 -6 9 -6 0 -1 -7 -7 -10 -15
-7 -21 8 -8 34 18 35 11 1 -8 7 -44 15 -53 12 -212 15 -880 18 -448 1 -948 0
-1110 -4z"/>
<path d="M5250 7472 c-35 -35 -45 -85 -31 -140 13 -45 61 -114 103 -145 l26
-20 64 30 c81 38 121 73 147 126 26 54 27 87 1 119 -33 43 -93 43 -135 2 -17
-17 -18 -17 -39 8 -45 55 -94 62 -136 20z m119 -81 l23 -43 37 36 c52 51 101
45 101 -11 0 -32 -79 -115 -131 -138 -48 -22 -61 -17 -103 42 -38 55 -46 123
-17 152 28 28 60 15 90 -38z"/>
<path d="M4755 6393 c-115 -60 -431 -459 -640 -808 -87 -145 -261 -492 -251
-502 3 -3 11 9 18 28 18 52 149 311 221 436 143 248 328 503 511 705 101 112
115 123 181 144 31 10 34 13 15 13 -14 0 -38 -7 -55 -16z"/>
<path d="M7594 6390 c-88 -12 -208 -55 -289 -102 -83 -49 -220 -183 -259 -253
-98 -178 -88 -355 28 -470 67 -66 138 -106 288 -161 209 -75 286 -139 296
-243 10 -104 -89 -229 -237 -299 -59 -29 -89 -36 -152 -40 -70 -4 -84 -2 -134
22 -63 31 -95 70 -102 125 -4 32 -1 43 23 69 16 18 47 37 69 44 48 16 57 46
24 79 -18 18 -30 21 -80 17 -112 -8 -197 -99 -206 -220 -5 -57 -2 -69 29 -128
61 -117 177 -170 372 -170 231 0 423 80 561 232 152 168 156 408 8 538 -53 46
-152 99 -262 139 -167 62 -245 110 -277 172 -7 15 -14 52 -14 82 0 162 202
355 416 397 78 15 132 2 169 -42 49 -58 26 -125 -95 -272 -23 -27 -39 -54 -37
-60 7 -20 76 -29 121 -16 189 55 289 256 201 406 -69 117 -262 182 -461 154z"/>
<path d="M2980 6323 c18 -9 11 -49 -36 -195 -75 -232 -145 -402 -348 -841
-172 -373 -212 -494 -186 -558 17 -39 62 -63 106 -54 40 7 38 4 63 96 11 41
43 131 71 199 63 153 74 191 25 90 -20 -41 -58 -140 -85 -220 -42 -126 -51
-145 -73 -153 -35 -11 -78 10 -96 48 -11 23 -12 40 -4 80 11 48 65 197 104
280 22 48 127 277 162 355 14 30 38 84 55 120 86 186 192 465 247 651 18 61
17 101 -3 105 -7 1 -8 0 -2 -3z"/>
<path d="M6453 6316 c-63 -20 -107 -51 -169 -119 -105 -117 -287 -434 -425
-742 -66 -146 -49 -133 -202 -161 -106 -20 -136 -40 -144 -99 -8 -62 9 -71
100 -56 40 7 81 15 91 18 25 7 21 -4 -52 -135 -64 -117 -145 -213 -204 -243
-22 -11 -61 -23 -88 -26 -36 -4 -51 -11 -55 -24 -17 -53 38 -94 116 -87 150
15 330 193 460 455 23 46 49 87 58 92 24 13 321 70 367 71 7 0 10 -49 10 -147
-2 -280 73 -465 218 -541 45 -24 62 -27 148 -27 82 0 101 3 125 21 15 12 29
32 31 45 3 23 0 24 -38 21 -56 -6 -84 3 -125 40 -79 69 -115 196 -114 402 0
78 3 159 7 181 l7 40 108 3 c59 1 123 -1 142 -7 39 -11 55 1 55 39 0 64 -75
100 -207 100 -65 0 -73 2 -73 19 0 29 34 188 85 391 52 211 63 295 45 360 -28
104 -150 155 -277 116z m18 -308 c-46 -161 -71 -260 -105 -428 l-31 -155 -150
-26 c-83 -15 -151 -26 -153 -24 -7 6 152 312 227 438 119 199 232 348 239 314
2 -9 -10 -62 -27 -119z"/>
<path d="M2175 6010 c-15 -22 -31 -37 -36 -34 -5 3 -6 -3 -2 -13 3 -10 3 -15
-2 -11 -4 4 -14 1 -21 -7 -16 -16 -19 -29 -4 -20 14 9 12 -18 -2 -37 -22 -27
-55 -32 -63 -9 -5 15 -15 20 -44 19 -21 0 -38 -5 -38 -12 0 -6 -3 -22 -7 -36
-6 -19 -5 -21 3 -10 6 8 11 13 12 10 0 -3 2 -13 4 -23 5 -29 36 -69 56 -74 10
-3 16 -9 13 -14 -3 -5 -10 -7 -15 -3 -6 3 -15 -8 -22 -26 -9 -25 -17 -30 -34
-27 -38 7 -48 -9 -15 -24 25 -11 29 -16 19 -28 -8 -10 -8 -13 -1 -8 7 4 14 -3
17 -18 2 -14 0 -28 -6 -32 -6 -3 -7 -1 -3 5 5 8 1 10 -10 5 -14 -5 -13 -8 6
-18 17 -9 19 -14 9 -17 -11 -4 -12 -9 -2 -26 11 -18 10 -20 -3 -15 -15 5 -15
4 0 -19 18 -28 19 -88 2 -126 -7 -16 -6 -26 3 -35 7 -6 12 -7 11 -2 -2 6 -2
21 -1 35 1 20 3 22 11 10 9 -13 12 -13 24 3 17 23 33 22 46 -3 13 -24 6 -40
-18 -40 -16 -1 -16 -2 1 -14 9 -7 17 -18 17 -25 0 -18 -28 -13 -51 10 l-21 21
7 -21 c4 -12 2 -21 -4 -21 -6 0 -11 6 -11 13 0 18 -28 17 -35 -1 -3 -8 -3 -17
0 -20 3 -3 5 0 5 6 0 7 5 12 10 12 14 0 12 -37 -2 -43 -8 -3 -5 -6 6 -6 12 -1
16 -6 13 -16 -8 -20 11 -29 28 -15 8 7 15 9 15 4 0 -4 9 2 20 14 11 12 20 26
20 32 0 6 5 8 10 5 6 -3 10 -17 10 -31 0 -14 4 -23 9 -19 5 3 13 0 17 -6 4 -8
3 -9 -4 -5 -7 4 -12 1 -13 -6 0 -7 -2 -21 -4 -30 -2 -11 2 -15 11 -11 8 3 14
-1 14 -10 0 -8 10 -17 23 -21 33 -9 42 -7 30 5 -6 6 -9 18 -6 27 4 8 2 13 -3
9 -6 -3 -11 3 -11 14 -2 19 12 26 21 10 3 -4 19 -11 36 -14 24 -5 30 -12 30
-32 0 -19 -5 -25 -22 -25 -21 -1 -22 -1 -5 -11 11 -6 25 -25 32 -42 11 -27 11
-36 -1 -59 -13 -24 -12 -27 1 -22 11 5 14 2 9 -12 -13 -35 -27 -45 -58 -43
-34 3 -106 67 -106 94 0 8 -5 15 -10 15 -6 0 -8 -11 -4 -25 4 -15 2 -25 -5
-25 -6 0 -8 7 -4 15 3 9 2 15 -3 14 -21 -4 -24 2 -10 17 9 8 16 20 16 27 0 6
-6 3 -12 -6 -12 -15 -15 -15 -37 2 -16 12 -20 21 -12 25 6 4 11 1 11 -6 0 -7
10 -1 23 12 16 17 21 30 15 40 -4 8 -13 29 -19 45 l-11 30 -23 -28 c-15 -16
-22 -34 -18 -44 5 -13 1 -15 -20 -11 -14 3 -28 0 -31 -6 -2 -6 -5 -4 -5 5 -1
9 -9 23 -18 30 -14 12 -16 12 -8 0 6 -10 4 -12 -4 -6 -9 5 -10 10 -2 18 6 6
11 18 10 27 0 10 -2 11 -6 3 -2 -7 -9 -13 -15 -13 -6 0 -3 9 7 20 12 13 16 30
13 53 -3 25 0 34 11 33 7 -1 16 5 18 12 3 7 -1 11 -8 10 -7 -2 -15 5 -17 16
-2 11 0 16 7 12 6 -4 11 0 11 8 0 9 -9 21 -20 28 -11 7 -20 21 -20 31 0 11 -6
17 -17 15 -11 -2 -18 3 -19 12 0 8 -4 26 -9 40 l-9 25 -7 -30 c-4 -16 -7 30
-6 103 0 73 -3 135 -6 139 -4 3 -6 -416 -5 -933 1 -516 4 -870 5 -785 3 103 8
160 16 170 10 12 9 13 -1 7 -10 -6 -12 3 -10 41 2 33 7 47 16 45 8 -1 11 2 7
8 -3 6 -11 8 -16 5 -5 -4 -9 10 -9 29 0 23 4 35 12 34 6 -2 14 6 16 17 4 18 3
18 -14 5 -17 -14 -18 -14 -6 2 17 21 34 90 21 82 -5 -3 -9 5 -8 18 0 13 3 17
6 10 2 -6 9 -9 15 -6 5 3 0 13 -11 21 -12 8 -18 19 -15 25 5 7 2 8 -6 3 -10
-6 -11 0 -5 31 4 21 11 45 17 52 7 8 7 12 0 12 -5 0 -13 21 -17 47 -6 41 -4
50 14 64 12 10 17 20 12 23 -5 3 -7 16 -3 28 3 13 1 19 -5 15 -5 -3 -10 0 -10
8 0 8 3 14 6 13 22 -2 41 4 41 13 0 5 -6 7 -12 3 -9 -6 -9 -3 0 9 8 9 10 22 6
28 -4 7 -3 9 4 5 6 -3 12 -1 15 6 2 7 3 5 2 -4 -2 -10 1 -18 7 -18 5 0 7 -4 4
-9 -4 -5 3 -7 13 -4 11 3 22 12 25 20 3 8 1 11 -4 8 -6 -3 -10 1 -10 9 0 9 5
15 12 13 7 -1 10 16 9 54 -2 48 0 56 16 56 10 0 27 -6 38 -13 11 -8 26 -14 35
-14 8 0 21 -9 28 -20 13 -22 48 -29 37 -7 -4 6 -1 5 7 -4 7 -9 20 -14 28 -12
12 4 12 3 1 -5 -7 -5 -23 -7 -35 -4 -15 3 -18 2 -11 -7 6 -6 23 -12 38 -13 27
-2 44 -23 26 -33 -11 -8 -2 -107 15 -145 3 -8 8 -40 10 -71 2 -31 6 -62 10
-68 4 -6 2 -11 -3 -11 -6 0 -11 -5 -11 -11 0 -6 9 -8 22 -4 17 6 20 4 15 -9
-4 -9 -2 -16 3 -16 6 0 10 5 10 12 0 23 29 -16 42 -57 11 -33 20 -42 51 -52
44 -15 77 -4 77 25 0 13 2 14 9 3 7 -10 12 -8 25 10 l16 23 0 -22 c0 -12 5
-21 11 -19 6 1 12 -7 14 -18 4 -47 16 -66 37 -60 14 5 21 1 25 -14 3 -12 10
-21 15 -21 5 0 7 4 4 8 -3 5 10 23 29 39 19 17 31 33 28 37 -4 3 5 6 18 7 24
1 24 1 -3 12 -16 6 -28 14 -28 18 0 4 16 19 35 34 52 39 75 66 75 88 0 10 9
30 20 44 11 14 20 38 20 54 0 15 5 31 10 34 6 4 8 10 5 15 -3 5 0 12 6 16 6 3
15 0 20 -7 15 -23 10 -60 -12 -95 -29 -48 -17 -42 15 7 25 36 27 48 25 120 -1
44 1 82 4 86 4 3 -2 22 -14 42 l-20 36 36 90 c19 49 35 94 35 100 -1 22 -92
-208 -136 -345 -41 -127 -52 -150 -88 -186 -88 -89 -228 -81 -323 18 -65 67
-82 169 -48 297 16 61 111 295 159 390 l24 46 -77 0 c-93 0 -148 25 -221 98
-129 128 -119 343 25 575 33 53 27 55 -10 2z"/>
<path d="M3419 4517 c-101 -34 -175 -84 -274 -182 -135 -135 -210 -279 -222
-427 -13 -154 55 -273 180 -312 90 -28 238 -19 338 21 157 62 317 197 423 357
56 84 59 86 97 86 21 0 39 -2 39 -4 0 -2 -23 -50 -51 -105 -34 -66 -54 -117
-57 -149 -4 -44 -2 -51 23 -70 56 -44 164 -20 234 52 l34 35 17 -32 c9 -19 35
-42 61 -55 83 -44 196 -18 302 70 l47 39 0 -26 c0 -17 12 -39 34 -61 28 -28
42 -34 75 -34 44 0 92 19 127 52 21 19 21 19 26 0 8 -30 56 -56 99 -55 48 2
109 33 143 73 l26 31 9 -24 c13 -34 66 -75 107 -83 82 -15 193 22 267 91 44
40 51 43 42 15 -3 -11 1 -35 10 -54 38 -80 155 -72 249 17 21 21 40 37 41 37
2 0 6 -11 9 -25 10 -38 69 -77 126 -83 91 -9 197 63 241 164 17 38 23 42 62
46 23 3 44 4 45 2 2 -1 -9 -41 -24 -89 -34 -102 -29 -120 32 -120 43 0 35 -10
102 135 40 89 133 203 172 213 29 7 26 -6 -30 -123 -69 -145 -65 -211 15 -226
46 -8 91 9 145 54 l44 39 21 -31 c78 -118 269 -69 413 105 48 59 57 67 65 52
6 -10 19 -28 30 -40 11 -13 19 -24 16 -26 -2 -2 -28 -18 -56 -36 -29 -18 -64
-46 -78 -63 -95 -113 115 -168 228 -60 43 41 59 78 55 130 l-3 46 45 12 c25 7
75 15 113 19 57 6 67 9 67 26 0 34 -155 25 -252 -16 -13 -5 -24 4 -48 41 -16
26 -30 60 -30 75 0 39 35 79 70 79 27 0 28 -2 23 -34 -7 -43 7 -51 41 -25 51
40 16 119 -54 119 -78 0 -182 -71 -195 -135 -3 -14 -7 -35 -10 -48 -2 -13 -29
-50 -60 -84 -96 -106 -240 -158 -279 -101 -25 35 -20 55 15 62 17 3 54 17 82
32 127 63 183 169 122 229 -30 31 -100 34 -160 6 -69 -31 -142 -125 -174 -221
-13 -43 -66 -109 -95 -120 -25 -9 -46 5 -46 31 0 10 20 64 45 119 25 55 45
113 45 128 0 99 -117 97 -210 -4 -22 -24 -42 -44 -44 -44 -2 0 3 19 12 43 21
59 12 77 -36 77 -47 0 -50 -4 -86 -96 -24 -64 -30 -72 -58 -78 -56 -11 -58
-10 -58 47 0 131 -101 200 -217 147 -64 -28 -123 -96 -171 -196 -49 -99 -90
-149 -140 -171 -74 -31 -80 31 -16 178 49 113 56 140 43 156 -12 13 -65 18
-92 7 -9 -3 -32 -49 -53 -101 -31 -81 -46 -105 -94 -153 -129 -129 -290 -133
-290 -8 0 94 88 212 153 206 31 -3 32 -4 30 -50 -3 -47 -2 -48 25 -48 55 0 90
68 62 121 -16 29 -64 49 -117 49 -96 0 -217 -104 -262 -226 -27 -71 -54 -110
-91 -129 -36 -18 -35 -18 -54 1 -24 24 -20 49 24 140 46 96 48 115 19 155 -28
40 -69 59 -126 59 -95 0 -182 -63 -271 -195 -73 -111 -164 -174 -249 -175 -76
0 -117 71 -50 85 127 28 242 145 225 230 -6 32 -53 58 -101 58 -102 -2 -201
-81 -262 -208 -40 -85 -82 -137 -125 -155 -75 -31 -77 14 -10 159 28 59 50
114 50 122 0 8 -7 25 -16 37 -13 19 -24 22 -80 22 l-64 0 20 41 c25 47 15 69
-30 69 -45 0 -84 -55 -109 -155 -27 -103 -142 -241 -276 -330 -134 -89 -280
-119 -369 -76 -66 33 -91 87 -83 189 3 43 15 103 26 134 48 138 176 302 294
379 98 63 211 75 259 27 48 -48 -2 -153 -92 -196 -26 -13 -35 -23 -35 -42 0
-54 101 -27 162 44 41 46 56 96 51 164 -5 51 -9 60 -46 93 -71 63 -193 77
-313 36z m1059 -456 c3 -28 -3 -39 -40 -75 -49 -47 -118 -75 -118 -48 0 30 41
101 77 132 46 41 77 38 81 -9z m470 5 c6 -27 -61 -155 -108 -209 -45 -51 -74
-65 -95 -47 -39 32 8 159 87 241 34 35 44 40 76 37 27 -2 38 -8 40 -22z m1201
-131 c17 -4 31 -10 31 -14 0 -20 -63 -102 -89 -115 -36 -19 -73 -20 -89 -4
-22 22 -14 114 13 168 l25 50 39 -39 c21 -21 53 -42 70 -46z"/>
<path d="M3754 3639 c-54 -60 -249 -166 -359 -194 -76 -19 -224 -19 -300 1
-79 20 -134 53 -202 122 -32 32 -47 43 -35 26 28 -41 91 -97 140 -125 22 -13
47 -35 57 -49 9 -14 29 -34 43 -44 27 -19 27 -19 11 0 -9 10 -20 26 -24 34 -7
12 -5 12 11 -1 20 -18 152 -98 194 -118 22 -12 22 -10 -5 14 -16 14 -25 24
-18 21 6 -4 13 -2 15 4 2 6 13 12 26 15 12 3 30 7 40 9 48 11 90 8 122 -8 27
-13 31 -13 16 -1 -11 8 -22 15 -26 15 -3 0 -11 9 -18 21 -8 12 -10 19 -5 16 5
-3 24 2 43 11 33 16 34 16 112 -26 78 -43 109 -52 43 -13 -37 21 -51 50 -16
31 38 -20 34 -10 -8 20 l-42 31 38 34 c21 19 32 35 24 35 -8 0 12 18 45 41 32
23 68 50 80 60 20 18 22 19 35 3 21 -25 110 -64 144 -63 25 1 23 2 -12 9 -23
5 -52 14 -65 21 -35 19 -78 56 -71 63 4 3 2 6 -4 6 -5 0 -18 -10 -29 -21z"/>
<path d="M5198 3219 c-64 -61 -71 -175 -17 -282 23 -44 121 -152 154 -169 11
-6 -8 18 -42 53 -102 104 -133 165 -133 262 0 115 71 178 165 147 20 -6 45
-25 57 -41 27 -36 36 -36 70 -1 37 40 97 57 140 39 51 -21 63 -42 63 -111 0
-117 -92 -242 -264 -358 -14 -10 -21 -18 -16 -18 21 0 130 87 186 148 72 77
102 139 107 217 4 75 -19 117 -73 135 -51 17 -95 6 -143 -36 l-41 -35 -34 37
c-29 32 -41 38 -88 42 -52 4 -58 2 -91 -29z"/>
<path d="M5250 3187 c-13 -7 -31 -24 -38 -37 -20 -38 -10 -126 21 -189 15 -30
27 -60 27 -66 0 -6 7 -20 16 -31 14 -18 14 -18 3 6 -10 22 -7 21 22 -9 59 -59
73 -65 106 -44 48 31 104 86 148 145 83 111 81 228 -4 228 -33 0 -88 -39 -114
-80 -10 -17 -22 -30 -26 -30 -3 0 -17 17 -30 38 -40 64 -89 90 -131 69z m90
-38 c17 -17 37 -44 46 -60 8 -16 18 -29 23 -29 5 0 20 17 35 38 50 73 116 103
147 66 19 -23 13 -88 -12 -142 -27 -56 -168 -202 -196 -202 -27 0 -106 85
-139 150 -71 141 0 275 96 179z"/>
</g>
</svg>
